<?xml version="1.0" encoding="iso-8859-1"?>
<!-- Generator: Adobe Illustrator 19.0.0, SVG Export Plug-In . SVG Version: 6.00 Build 0)  -->
<svg version="1.1" id="Layer_1" xmlns="http://www.w3.org/2000/svg" xmlns:xlink="http://www.w3.org/1999/xlink" x="0px" y="0px"
	 viewBox="0 0 512 512" style="enable-background:new 0 0 512 512;" xml:space="preserve">
<g>
	<g>
		<path d="M498.684,242.347L323.167,90.132c-0.411-0.358-0.856-0.675-1.329-0.946c-0.896-0.517-22.163-12.558-39.279-2.679
			c-11.871,6.854-17.888,21.725-17.888,44.204c0,4.713,3.82,8.533,8.533,8.533s8.533-3.82,8.533-8.533
			c0-15.462,3.312-25.904,9.321-29.408c7.194-2.459,15.108-1.609,21.617,2.321l159.394,138.233h-81.444
			c-0.387,0.001-0.774,0.028-1.158,0.079c-8.204-0.162-16.692-0.079-24.817-0.188c-28.796-0.412-56.021-0.721-74.479,18.029
			l-68.563-0.229c-18.242-18.521-45.479-18.204-74.258-17.8c-8.117,0.108-16.6,0.025-24.804,0.188
			c-0.388-0.052-0.779-0.078-1.171-0.079H40.068l159.39-138.229c6.512-3.925,14.424-4.776,21.621-2.325
			c6.009,3.504,9.321,13.946,9.321,29.408c0,4.713,3.82,8.533,8.533,8.533s8.533-3.82,8.533-8.533
			c0-22.479-6.017-37.35-17.887-44.204c-17.117-9.887-38.383,2.163-39.279,2.68c-0.473,0.271-0.918,0.588-1.329,0.946
			L13.533,242.279C5.586,244.108-0.033,251.198,0,259.352v14.933c0.006,3.748,1.187,7.399,3.375,10.442l22.642,31.258v20.833
			c0.792,51.037,49.45,92.558,108.471,92.558c57.304,0,102.688-34.608,107.988-82.579l27.133,0.288
			c5.217,47.683,50.6,82.292,107.904,82.292c57.383,0,104.933-38.729,108.25-88.213c0.112-1.771,0.221-3.662,0.221-5.546v-19.633
			l22.692-31.329c2.161-3.027,3.323-6.652,3.325-10.371v-14.933C512.028,251.286,506.521,244.254,498.684,242.347z M62.234,307.302
			c-3.26-3.319-3.26-8.638,0-11.957L79.3,278.278c3.362-3.302,8.764-3.253,12.066,0.109c3.26,3.319,3.26,8.638,0,11.957L74.3,307.41
			C70.938,310.712,65.536,310.664,62.234,307.302z M134.033,298.877l-51.2,51.2c-3.362,3.302-8.764,3.253-12.066-0.109
			c-3.26-3.319-3.26-8.638,0-11.957l51.2-51.2c3.362-3.302,8.764-3.253,12.066,0.109
			C137.293,290.239,137.293,295.558,134.033,298.877z M273.067,309.911h-34.133c-4.713,0-8.533-3.82-8.533-8.533
			s3.82-8.533,8.533-8.533h34.133c4.713,0,8.533,3.82,8.533,8.533S277.78,309.911,273.067,309.911z M318.234,307.302
			c-3.26-3.319-3.26-8.639,0-11.958l17.067-17.067c3.362-3.302,8.764-3.254,12.066,0.108c3.26,3.319,3.26,8.639,0,11.958
			L330.3,307.41C326.938,310.713,321.536,310.664,318.234,307.302z M390.033,298.877l-51.2,51.2
			c-3.362,3.302-8.764,3.254-12.066-0.108c-3.26-3.319-3.26-8.639,0-11.958l51.2-51.2c3.362-3.302,8.764-3.254,12.066,0.108
			C393.294,290.238,393.294,295.558,390.033,298.877z"/>
	</g>
</g>
<g>
</g>
<g>
</g>
<g>
</g>
<g>
</g>
<g>
</g>
<g>
</g>
<g>
</g>
<g>
</g>
<g>
</g>
<g>
</g>
<g>
</g>
<g>
</g>
<g>
</g>
<g>
</g>
<g>
</g>
</svg>
